# xmcd CD database file
#
# Track frame offsets:
#	150
#	5077
#	25435
#	45710
#	67400
#	87672
#
# Disc length: 1456 seconds
#
# Revision: 0
# Processed by: cddbd v1.5PL3 Copyright (c) Steve Scherf et al.
# Submitted via: CDex 1.50beta10
#
DISCID=5605ae06
DTITLE=Klaha - Marchen
DYEAR=2003
DGENRE=New Age
TTITLE0=密（ひそか）[Instrumental]
TTITLE1=Marchen
TTITLE2=Stay in the rain
TTITLE3=出逢った日のまま
TTITLE4=Marchen[Instrumental]
TTITLE5=出逢った日のまま[Instrumental]
EXTD=YEAR: 2003
EXTT0=
EXTT1=
EXTT2=
EXTT3=
EXTT4=
EXTT5=
PLAYORDER=
